<svg width="422" height="244" viewBox="0 0 422 244" fill="none" xmlns="http://www.w3.org/2000/svg">
<path d="M193 92L219.1 19.3H233.1L259.2 92H244.4L226.4 37.9L225.6 34.2L224.7 38.1L216.2 64L215 66L216.5 65.8H224.1C226.033 65.8 227.65 66.35 228.95 67.45C230.283 68.55 231.35 69.9 232.15 71.5C232.983 73.1 233.633 74.6333 234.1 76.1H212.4L207.1 92H193ZM271.568 92V19.3H285.368L316.068 68.2L317.468 72.2L317.268 68.2V19.3H329.868V92H317.268L285.168 41.1L283.568 37.5L283.768 40.9V92H271.568ZM373.984 92V19.3H387.884V92H373.984ZM230.5 227.4C222.8 227.4 216.25 225.75 210.85 222.45C205.483 219.117 201.383 214.6 198.55 208.9C195.717 203.2 194.3 196.767 194.3 189.6C194.3 184.367 195.1 179.467 196.7 174.9C198.333 170.333 200.7 166.317 203.8 162.85C206.9 159.383 210.683 156.683 215.15 154.75C219.65 152.783 224.767 151.8 230.5 151.8C237.033 151.8 242.583 152.917 247.15 155.15C251.75 157.383 255.483 160.35 258.35 164.05C261.217 167.75 263.3 171.833 264.6 176.3C265.933 180.733 266.6 185.167 266.6 189.6C266.6 194.5 265.8 199.217 264.2 203.75C262.633 208.25 260.317 212.283 257.25 215.85C254.183 219.417 250.4 222.233 245.9 224.3C241.433 226.367 236.3 227.4 230.5 227.4ZM230.5 217.1C234.167 217.1 237.6 216.033 240.8 213.9C244 211.733 246.583 208.6 248.55 204.5C250.517 200.4 251.5 195.433 251.5 189.6C251.5 184.367 250.667 179.683 249 175.55C247.333 171.383 244.933 168.1 241.8 165.7C238.667 163.3 234.9 162.1 230.5 162.1C225.9 162.1 222.033 163.367 218.9 165.9C215.8 168.433 213.45 171.783 211.85 175.95C210.283 180.117 209.5 184.667 209.5 189.6C209.5 193.033 209.95 196.4 210.85 199.7C211.75 202.967 213.067 205.917 214.8 208.55C216.567 211.15 218.767 213.233 221.4 214.8C224.033 216.333 227.067 217.1 230.5 217.1ZM306.706 227.2C305.473 227.2 304.34 227.15 303.306 227.05C302.306 226.983 301.173 226.833 299.906 226.6C298.64 226.367 297.04 226 295.106 225.5C295.64 224.333 296.34 223.083 297.206 221.75C298.106 220.417 299.206 219.283 300.506 218.35C301.806 217.383 303.373 216.9 305.206 216.9C305.273 216.9 305.34 216.9 305.406 216.9C305.506 216.9 305.573 216.9 305.606 216.9C309.373 216.833 312.606 216 315.306 214.4C318.006 212.8 320.223 210.7 321.956 208.1C323.723 205.467 325.023 202.55 325.856 199.35C326.69 196.117 327.106 192.833 327.106 189.5C327.106 184.267 326.173 179.6 324.306 175.5C322.473 171.4 319.556 168.183 315.556 165.85C311.556 163.483 306.34 162.3 299.906 162.3C298.606 162.3 297.24 162.367 295.806 162.5C294.373 162.633 292.873 162.833 291.306 163.1V226H277.206V154.6C281.673 153.633 285.84 152.967 289.706 152.6C293.606 152.2 297.006 152 299.906 152C308.773 152 316.356 153.483 322.656 156.45C328.99 159.383 333.823 163.65 337.156 169.25C340.523 174.85 342.206 181.6 342.206 189.5C342.206 194.767 341.323 199.683 339.556 204.25C337.79 208.817 335.306 212.817 332.106 216.25C328.906 219.683 325.14 222.367 320.806 224.3C316.506 226.233 311.806 227.2 306.706 227.2ZM351.913 226V153.3H395.513V163.6H366.213V215.7H397.113V226H351.913ZM370.013 192.9C370.447 191.433 371.063 189.917 371.863 188.35C372.697 186.783 373.78 185.467 375.113 184.4C376.447 183.333 378.08 182.8 380.013 182.8H392.113V192.9H370.013Z" fill="black"/>
<path d="M121.8 227.36C98.7467 227.36 79.1467 222.693 63 213.36C46.8533 204.027 34.5333 191.427 26.04 175.56C17.64 159.6 13.44 141.773 13.44 122.08C13.44 107.52 15.9133 93.8933 20.86 81.2C25.8067 68.4133 32.9467 57.2133 42.28 47.6C51.7067 37.9867 63.0933 30.4733 76.44 25.06C89.7867 19.5533 104.907 16.8 121.8 16.8C129.64 16.8 137.62 17.5467 145.74 19.04C153.86 20.5333 162.307 22.96 171.08 26.32L161 52.08C152.787 49.6533 145.787 47.9733 140 47.04C134.307 46.1067 128.24 45.64 121.8 45.64C110.693 45.64 100.987 47.7867 92.68 52.08C84.4667 56.3733 77.6533 62.16 72.24 69.44C66.8267 76.6267 62.7667 84.7933 60.06 93.94C57.3533 102.993 56 112.373 56 122.08C56 131.693 57.3533 141.073 60.06 150.22C62.7667 159.367 66.8267 167.58 72.24 174.86C77.6533 182.047 84.4667 187.787 92.68 192.08C100.987 196.373 110.693 198.52 121.8 198.52C128.24 198.52 134.633 197.727 140.98 196.14C147.327 194.553 153.907 192.173 160.72 189L171.08 214.48C162.867 218.773 154.56 221.993 146.16 224.14C137.76 226.287 129.64 227.36 121.8 227.36Z" fill="black"/>
</svg>
